<svg xmlns="http://www.w3.org/2000/svg" xmlns:xlink="http://www.w3.org/1999/xlink" contentStyleType="text/css" height="607px" preserveAspectRatio="none" style="width:2860px;height:607px;background:#777777;" version="1.1" viewBox="0 0 2860 607" width="2860px" zoomAndPan="magnify"><defs/><g><rect fill="#777777" height="607" style="stroke:none;stroke-width:1.0;" width="2860" x="0" y="0"/><!--cluster RastreadorWeb--><g id="cluster_RastreadorWeb"><path d="M8.5,6 L131.5,6 A3.75,3.75 0 0 1 134,8.5 L141,28.2969 L2850.5,28.2969 A2.5,2.5 0 0 1 2853,30.7969 L2853,598.13 A2.5,2.5 0 0 1 2850.5,600.63 L8.5,600.63 A2.5,2.5 0 0 1 6,598.13 L6,8.5 A2.5,2.5 0 0 1 8.5,6 " fill="none" style="stroke:#FFFFFF;stroke-width:1.5;"/><line style="stroke:#FFFFFF;stroke-width:1.5;" x1="6" x2="141" y1="28.2969" y2="28.2969"/><text fill="#FFFFFF" font-family="sans-serif" font-size="14" font-weight="bold" lengthAdjust="spacing" textLength="122" x="10" y="20.9951">RastreadorWeb</text></g><!--cluster cli--><g id="cluster_cli"><path d="M355.5,176.61 L373.5,176.61 A3.75,3.75 0 0 1 376,179.11 L383,198.9069 L492.5,198.9069 A2.5,2.5 0 0 1 495,201.4069 L495,279.91 A2.5,2.5 0 0 1 492.5,282.41 L355.5,282.41 A2.5,2.5 0 0 1 353,279.91 L353,179.11 A2.5,2.5 0 0 1 355.5,176.61 " fill="none" style="stroke:#FFFFFF;stroke-width:1.5;"/><line style="stroke:#FFFFFF;stroke-width:1.5;" x1="353" x2="383" y1="198.9069" y2="198.9069"/><text fill="#FFFFFF" font-family="sans-serif" font-size="14" font-weight="bold" lengthAdjust="spacing" textLength="17" x="357" y="191.6051">cli</text></g><!--cluster scraper--><g id="cluster_scraper"><path d="M521.5,163.8 L583.5,163.8 A3.75,3.75 0 0 1 586,166.3 L593,186.0969 L1780.5,186.0969 A2.5,2.5 0 0 1 1783,188.5969 L1783,574.13 A2.5,2.5 0 0 1 1780.5,576.63 L521.5,576.63 A2.5,2.5 0 0 1 519,574.13 L519,166.3 A2.5,2.5 0 0 1 521.5,163.8 " fill="none" style="stroke:#FFFFFF;stroke-width:1.5;"/><line style="stroke:#FFFFFF;stroke-width:1.5;" x1="519" x2="593" y1="186.0969" y2="186.0969"/><text fill="#FFFFFF" font-family="sans-serif" font-size="14" font-weight="bold" lengthAdjust="spacing" textLength="61" x="523" y="178.7951">scraper</text></g><!--cluster navigator--><g id="cluster_navigator"><path d="M1026.5,306.41 L1101.5,306.41 A3.75,3.75 0 0 1 1104,308.91 L1111,328.7069 L1756.5,328.7069 A2.5,2.5 0 0 1 1759,331.2069 L1759,550.13 A2.5,2.5 0 0 1 1756.5,552.63 L1026.5,552.63 A2.5,2.5 0 0 1 1024,550.13 L1024,308.91 A2.5,2.5 0 0 1 1026.5,306.41 " fill="none" style="stroke:#FFFFFF;stroke-width:1.5;"/><line style="stroke:#FFFFFF;stroke-width:1.5;" x1="1024" x2="1111" y1="328.7069" y2="328.7069"/><text fill="#FFFFFF" font-family="sans-serif" font-size="14" font-weight="bold" lengthAdjust="spacing" textLength="74" x="1028" y="321.4051">navigator</text></g><!--cluster storage--><g id="cluster_storage"><path d="M1809.5,163.8 L1871.5,163.8 A3.75,3.75 0 0 1 1874,166.3 L1881,186.0969 L2826.5,186.0969 A2.5,2.5 0 0 1 2829,188.5969 L2829,422.52 A2.5,2.5 0 0 1 2826.5,425.02 L1809.5,425.02 A2.5,2.5 0 0 1 1807,422.52 L1807,166.3 A2.5,2.5 0 0 1 1809.5,163.8 " fill="none" style="stroke:#FFFFFF;stroke-width:1.5;"/><line style="stroke:#FFFFFF;stroke-width:1.5;" x1="1807" x2="1881" y1="186.0969" y2="186.0969"/><text fill="#FFFFFF" font-family="sans-serif" font-size="14" font-weight="bold" lengthAdjust="spacing" textLength="61" x="1811" y="178.7951">storage</text></g><!--cluster tests--><g id="cluster_tests"><path d="M32.5,49 L73.5,49 A3.75,3.75 0 0 1 76,51.5 L83,71.2969 L326.5,71.2969 A2.5,2.5 0 0 1 329,73.7969 L329,279.91 A2.5,2.5 0 0 1 326.5,282.41 L32.5,282.41 A2.5,2.5 0 0 1 30,279.91 L30,51.5 A2.5,2.5 0 0 1 32.5,49 " fill="none" style="stroke:#FFFFFF;stroke-width:1.5;"/><line style="stroke:#FFFFFF;stroke-width:1.5;" x1="30" x2="83" y1="71.2969" y2="71.2969"/><text fill="#FFFFFF" font-family="sans-serif" font-size="14" font-weight="bold" lengthAdjust="spacing" textLength="40" x="34" y="63.9951">tests</text></g><!--class main--><g id="elem_main"><rect codeLine="3" fill="#2E2E2E" height="54.8047" id="main" rx="2.5" ry="2.5" style="stroke:#1B1B1B;stroke-width:0.5;" width="59" x="881.5" y="84"/><ellipse cx="895.75" cy="97" fill="#2E5233" rx="8" ry="8" style="stroke:#E7E7E7;stroke-width:1.0;"/><path d="M897.875,100.5625 Q897.2969,100.8594 896.6719,101 Q896.0625,101.1563 895.3906,101.1563 Q893.3906,101.1563 892.2188,100.0469 Q891.0469,98.9219 891.0469,97 Q891.0469,95.0781 892.2188,93.9531 Q893.3906,92.8281 895.3906,92.8281 Q896.0625,92.8281 896.6719,92.9844 Q897.2969,93.1406 897.875,93.4375 L897.875,95.0938 Q897.2969,94.7031 896.7344,94.5156 Q896.1719,94.3281 895.5625,94.3281 Q894.4531,94.3281 893.8125,95.0469 Q893.1875,95.75 893.1875,97 Q893.1875,98.2344 893.8125,98.9531 Q894.4531,99.6563 895.5625,99.6563 Q896.1719,99.6563 896.7344,99.4844 Q897.2969,99.2969 897.875,98.9063 L897.875,100.5625 Z " fill="#FFFFFF"/><text fill="#AAAAAA" font-family="Verdana" font-size="11" lengthAdjust="spacing" textLength="28" x="907.25" y="100.8081">main</text><line style="stroke:#1B1B1B;stroke-width:0.5;" x1="882.5" x2="939.5" y1="110" y2="110"/><line style="stroke:#1B1B1B;stroke-width:0.5;" x1="882.5" x2="939.5" y1="118" y2="118"/><ellipse cx="892.5" cy="129.4023" fill="#84BE84" rx="3" ry="3" style="stroke:#038048;stroke-width:1.0;"/><text fill="#AAAAAA" font-family="sans-serif" font-size="11" lengthAdjust="spacing" textLength="36" x="898.5" y="132.2104">main()</text></g><!--class CLI--><g id="elem_CLI"><rect codeLine="8" fill="#2E2E2E" height="54.8047" id="CLI" rx="2.5" ry="2.5" style="stroke:#1B1B1B;stroke-width:0.5;" width="109" x="369.5" y="211.61"/><ellipse cx="412" cy="224.61" fill="#2E5233" rx="8" ry="8" style="stroke:#E7E7E7;stroke-width:1.0;"/><path d="M414.125,228.1725 Q413.5469,228.4694 412.9219,228.61 Q412.3125,228.7663 411.6406,228.7663 Q409.6406,228.7663 408.4688,227.6569 Q407.2969,226.5319 407.2969,224.61 Q407.2969,222.6881 408.4688,221.5631 Q409.6406,220.4381 411.6406,220.4381 Q412.3125,220.4381 412.9219,220.5944 Q413.5469,220.7506 414.125,221.0475 L414.125,222.7038 Q413.5469,222.3131 412.9844,222.1256 Q412.4219,221.9381 411.8125,221.9381 Q410.7031,221.9381 410.0625,222.6569 Q409.4375,223.36 409.4375,224.61 Q409.4375,225.8444 410.0625,226.5631 Q410.7031,227.2663 411.8125,227.2663 Q412.4219,227.2663 412.9844,227.0944 Q413.5469,226.9069 414.125,226.5163 L414.125,228.1725 Z " fill="#FFFFFF"/><text fill="#AAAAAA" font-family="Verdana" font-size="11" lengthAdjust="spacing" textLength="17" x="428" y="228.4181">CLI</text><line style="stroke:#1B1B1B;stroke-width:0.5;" x1="370.5" x2="477.5" y1="237.61" y2="237.61"/><line style="stroke:#1B1B1B;stroke-width:0.5;" x1="370.5" x2="477.5" y1="245.61" y2="245.61"/><ellipse cx="380.5" cy="257.0123" fill="#84BE84" rx="3" ry="3" style="stroke:#038048;stroke-width:1.0;"/><text fill="#AAAAAA" font-family="sans-serif" font-size="11" lengthAdjust="spacing" textLength="86" x="386.5" y="259.8204">build_cli() : App</text></g><!--class Scraper--><g id="elem_Scraper"><rect codeLine="14" fill="#2E2E2E" height="80.4141" id="Scraper" rx="2.5" ry="2.5" style="stroke:#1B1B1B;stroke-width:0.5;" width="142" x="840" y="198.8"/><ellipse cx="885" cy="211.8" fill="#2E5233" rx="8" ry="8" style="stroke:#E7E7E7;stroke-width:1.0;"/><path d="M887.125,215.3625 Q886.5469,215.6594 885.9219,215.8 Q885.3125,215.9563 884.6406,215.9563 Q882.6406,215.9563 881.4688,214.8469 Q880.2969,213.7219 880.2969,211.8 Q880.2969,209.8781 881.4688,208.7531 Q882.6406,207.6281 884.6406,207.6281 Q885.3125,207.6281 885.9219,207.7844 Q886.5469,207.9406 887.125,208.2375 L887.125,209.8938 Q886.5469,209.5031 885.9844,209.3156 Q885.4219,209.1281 884.8125,209.1281 Q883.7031,209.1281 883.0625,209.8469 Q882.4375,210.55 882.4375,211.8 Q882.4375,213.0344 883.0625,213.7531 Q883.7031,214.4563 884.8125,214.4563 Q885.4219,214.4563 885.9844,214.2844 Q886.5469,214.0969 887.125,213.7063 L887.125,215.3625 Z " fill="#FFFFFF"/><text fill="#AAAAAA" font-family="Verdana" font-size="11" lengthAdjust="spacing" textLength="45" x="901" y="215.6081">Scraper</text><line style="stroke:#1B1B1B;stroke-width:0.5;" x1="841" x2="981" y1="224.8" y2="224.8"/><ellipse cx="851" cy="236.2023" fill="none" rx="3" ry="3" style="stroke:#038048;stroke-width:1.0;"/><text fill="#AAAAAA" font-family="sans-serif" font-size="11" lengthAdjust="spacing" textLength="119" x="857" y="239.0104">navigator : Navigator</text><ellipse cx="851" cy="249.007" fill="none" rx="3" ry="3" style="stroke:#038048;stroke-width:1.0;"/><text fill="#AAAAAA" font-family="sans-serif" font-size="11" lengthAdjust="spacing" textLength="94" x="857" y="251.8151">fetcher : Fetcher</text><ellipse cx="851" cy="261.8117" fill="none" rx="3" ry="3" style="stroke:#038048;stroke-width:1.0;"/><text fill="#AAAAAA" font-family="sans-serif" font-size="11" lengthAdjust="spacing" textLength="88" x="857" y="264.6198">parser : Parser</text><line style="stroke:#1B1B1B;stroke-width:0.5;" x1="841" x2="981" y1="271.2141" y2="271.2141"/></g><!--class Fetcher--><g id="elem_Fetcher"><rect codeLine="36" fill="#2E2E2E" height="54.8047" id="Fetcher" rx="2.5" ry="2.5" style="stroke:#1B1B1B;stroke-width:0.5;" width="244" x="535" y="354.22"/><ellipse cx="632.5" cy="367.22" fill="#2E5233" rx="8" ry="8" style="stroke:#E7E7E7;stroke-width:1.0;"/><path d="M634.625,370.7825 Q634.0469,371.0794 633.4219,371.22 Q632.8125,371.3762 632.1406,371.3762 Q630.1406,371.3762 628.9688,370.2669 Q627.7969,369.1419 627.7969,367.22 Q627.7969,365.2981 628.9688,364.1731 Q630.1406,363.0481 632.1406,363.0481 Q632.8125,363.0481 633.4219,363.2044 Q634.0469,363.3606 634.625,363.6575 L634.625,365.3137 Q634.0469,364.9231 633.4844,364.7356 Q632.9219,364.5481 632.3125,364.5481 Q631.2031,364.5481 630.5625,365.2669 Q629.9375,365.97 629.9375,367.22 Q629.9375,368.4544 630.5625,369.1731 Q631.2031,369.8762 632.3125,369.8762 Q632.9219,369.8762 633.4844,369.7044 Q634.0469,369.5169 634.625,369.1262 L634.625,370.7825 Z " fill="#FFFFFF"/><text fill="#AAAAAA" font-family="Verdana" font-size="11" lengthAdjust="spacing" textLength="42" x="648.5" y="371.0281">Fetcher</text><line style="stroke:#1B1B1B;stroke-width:0.5;" x1="536" x2="778" y1="380.22" y2="380.22"/><line style="stroke:#1B1B1B;stroke-width:0.5;" x1="536" x2="778" y1="388.22" y2="388.22"/><ellipse cx="546" cy="399.6223" fill="#84BE84" rx="3" ry="3" style="stroke:#038048;stroke-width:1.0;"/><text fill="#AAAAAA" font-family="sans-serif" font-size="11" lengthAdjust="spacing" textLength="221" x="552" y="402.4304">fetch_url(client: Client, url: str) : Result</text></g><!--class Parser--><g id="elem_Parser"><rect codeLine="40" fill="#2E2E2E" height="67.6094" id="Parser" rx="2.5" ry="2.5" style="stroke:#1B1B1B;stroke-width:0.5;" width="193" x="814.5" y="347.81"/><ellipse cx="888.5" cy="360.81" fill="#2E5233" rx="8" ry="8" style="stroke:#E7E7E7;stroke-width:1.0;"/><path d="M890.625,364.3725 Q890.0469,364.6694 889.4219,364.81 Q888.8125,364.9663 888.1406,364.9663 Q886.1406,364.9663 884.9688,363.8569 Q883.7969,362.7319 883.7969,360.81 Q883.7969,358.8881 884.9688,357.7631 Q886.1406,356.6381 888.1406,356.6381 Q888.8125,356.6381 889.4219,356.7944 Q890.0469,356.9506 890.625,357.2475 L890.625,358.9038 Q890.0469,358.5131 889.4844,358.3256 Q888.9219,358.1381 888.3125,358.1381 Q887.2031,358.1381 886.5625,358.8569 Q885.9375,359.56 885.9375,360.81 Q885.9375,362.0444 886.5625,362.7631 Q887.2031,363.4663 888.3125,363.4663 Q888.9219,363.4663 889.4844,363.2944 Q890.0469,363.1069 890.625,362.7163 L890.625,364.3725 Z " fill="#FFFFFF"/><text fill="#AAAAAA" font-family="Verdana" font-size="11" lengthAdjust="spacing" textLength="38" x="904.5" y="364.6181">Parser</text><line style="stroke:#1B1B1B;stroke-width:0.5;" x1="815.5" x2="1006.5" y1="373.81" y2="373.81"/><line style="stroke:#1B1B1B;stroke-width:0.5;" x1="815.5" x2="1006.5" y1="381.81" y2="381.81"/><ellipse cx="825.5" cy="393.2123" fill="#84BE84" rx="3" ry="3" style="stroke:#038048;stroke-width:1.0;"/><text fill="#AAAAAA" font-family="sans-serif" font-size="11" lengthAdjust="spacing" textLength="154" x="831.5" y="396.0204">parse_links(html: str) : Vec</text><ellipse cx="825.5" cy="406.017" fill="#84BE84" rx="3" ry="3" style="stroke:#038048;stroke-width:1.0;"/><text fill="#AAAAAA" font-family="sans-serif" font-size="11" lengthAdjust="spacing" textLength="170" x="831.5" y="408.8251">parse_images(html: str) : Vec</text></g><!--class Navigator--><g id="elem_Navigator"><rect codeLine="21" fill="#2E2E2E" height="80.4141" id="Navigator" rx="2.5" ry="2.5" style="stroke:#1B1B1B;stroke-width:0.5;" width="357" x="1042.5" y="341.41"/><ellipse cx="1190.5" cy="354.41" fill="#2E5233" rx="8" ry="8" style="stroke:#E7E7E7;stroke-width:1.0;"/><path d="M1192.625,357.9725 Q1192.0469,358.2694 1191.4219,358.41 Q1190.8125,358.5662 1190.1406,358.5662 Q1188.1406,358.5662 1186.9688,357.4569 Q1185.7969,356.3319 1185.7969,354.41 Q1185.7969,352.4881 1186.9688,351.3631 Q1188.1406,350.2381 1190.1406,350.2381 Q1190.8125,350.2381 1191.4219,350.3944 Q1192.0469,350.5506 1192.625,350.8475 L1192.625,352.5037 Q1192.0469,352.1131 1191.4844,351.9256 Q1190.9219,351.7381 1190.3125,351.7381 Q1189.2031,351.7381 1188.5625,352.4569 Q1187.9375,353.16 1187.9375,354.41 Q1187.9375,355.6444 1188.5625,356.3631 Q1189.2031,357.0662 1190.3125,357.0662 Q1190.9219,357.0662 1191.4844,356.8944 Q1192.0469,356.7069 1192.625,356.3162 L1192.625,357.9725 Z " fill="#FFFFFF"/><text fill="#AAAAAA" font-family="Verdana" font-size="11" lengthAdjust="spacing" textLength="54" x="1206.5" y="358.2181">Navigator</text><line style="stroke:#1B1B1B;stroke-width:0.5;" x1="1043.5" x2="1398.5" y1="367.41" y2="367.41"/><ellipse cx="1053.5" cy="378.8123" fill="none" rx="3" ry="3" style="stroke:#038048;stroke-width:1.0;"/><text fill="#AAAAAA" font-family="sans-serif" font-size="11" lengthAdjust="spacing" textLength="96" x="1059.5" y="381.6204">images : Images</text><ellipse cx="1053.5" cy="391.617" fill="none" rx="3" ry="3" style="stroke:#038048;stroke-width:1.0;"/><text fill="#AAAAAA" font-family="sans-serif" font-size="11" lengthAdjust="spacing" textLength="67" x="1059.5" y="394.4251">links : Links</text><line style="stroke:#1B1B1B;stroke-width:0.5;" x1="1043.5" x2="1398.5" y1="401.0194" y2="401.0194"/><ellipse cx="1053.5" cy="412.4217" fill="#84BE84" rx="3" ry="3" style="stroke:#038048;stroke-width:1.0;"/><text fill="#AAAAAA" font-family="sans-serif" font-size="11" lengthAdjust="spacing" textLength="334" x="1059.5" y="415.2298">navigate(url: str, depth: usize, filter: str, results: HashSet)</text></g><!--class Images--><g id="elem_Images"><rect codeLine="27" fill="#2E2E2E" height="54.8047" id="Images" rx="2.5" ry="2.5" style="stroke:#1B1B1B;stroke-width:0.5;" width="342" x="1040" y="481.83"/><ellipse cx="1186.5" cy="494.83" fill="#2E5233" rx="8" ry="8" style="stroke:#E7E7E7;stroke-width:1.0;"/><path d="M1188.625,498.3925 Q1188.0469,498.6894 1187.4219,498.83 Q1186.8125,498.9863 1186.1406,498.9863 Q1184.1406,498.9863 1182.9688,497.8769 Q1181.7969,496.7519 1181.7969,494.83 Q1181.7969,492.9081 1182.9688,491.7831 Q1184.1406,490.6581 1186.1406,490.6581 Q1186.8125,490.6581 1187.4219,490.8144 Q1188.0469,490.9706 1188.625,491.2675 L1188.625,492.9238 Q1188.0469,492.5331 1187.4844,492.3456 Q1186.9219,492.1581 1186.3125,492.1581 Q1185.2031,492.1581 1184.5625,492.8769 Q1183.9375,493.58 1183.9375,494.83 Q1183.9375,496.0644 1184.5625,496.7831 Q1185.2031,497.4863 1186.3125,497.4863 Q1186.9219,497.4863 1187.4844,497.3144 Q1188.0469,497.1269 1188.625,496.7363 L1188.625,498.3925 Z " fill="#FFFFFF"/><text fill="#AAAAAA" font-family="Verdana" font-size="11" lengthAdjust="spacing" textLength="42" x="1202.5" y="498.6381">Images</text><line style="stroke:#1B1B1B;stroke-width:0.5;" x1="1041" x2="1381" y1="507.83" y2="507.83"/><line style="stroke:#1B1B1B;stroke-width:0.5;" x1="1041" x2="1381" y1="515.83" y2="515.83"/><ellipse cx="1051" cy="527.2323" fill="#84BE84" rx="3" ry="3" style="stroke:#038048;stroke-width:1.0;"/><text fill="#AAAAAA" font-family="sans-serif" font-size="11" lengthAdjust="spacing" textLength="319" x="1057" y="530.0404">capture_images(url: str, depth: usize, results: HashSet)</text></g><!--class Links--><g id="elem_Links"><rect codeLine="31" fill="#2E2E2E" height="54.8047" id="Links" rx="2.5" ry="2.5" style="stroke:#1B1B1B;stroke-width:0.5;" width="326" x="1417" y="481.83"/><ellipse cx="1562" cy="494.83" fill="#2E5233" rx="8" ry="8" style="stroke:#E7E7E7;stroke-width:1.0;"/><path d="M1564.125,498.3925 Q1563.5469,498.6894 1562.9219,498.83 Q1562.3125,498.9863 1561.6406,498.9863 Q1559.6406,498.9863 1558.4688,497.8769 Q1557.2969,496.7519 1557.2969,494.83 Q1557.2969,492.9081 1558.4688,491.7831 Q1559.6406,490.6581 1561.6406,490.6581 Q1562.3125,490.6581 1562.9219,490.8144 Q1563.5469,490.9706 1564.125,491.2675 L1564.125,492.9238 Q1563.5469,492.5331 1562.9844,492.3456 Q1562.4219,492.1581 1561.8125,492.1581 Q1560.7031,492.1581 1560.0625,492.8769 Q1559.4375,493.58 1559.4375,494.83 Q1559.4375,496.0644 1560.0625,496.7831 Q1560.7031,497.4863 1561.8125,497.4863 Q1562.4219,497.4863 1562.9844,497.3144 Q1563.5469,497.1269 1564.125,496.7363 L1564.125,498.3925 Z " fill="#FFFFFF"/><text fill="#AAAAAA" font-family="Verdana" font-size="11" lengthAdjust="spacing" textLength="29" x="1578" y="498.6381">Links</text><line style="stroke:#1B1B1B;stroke-width:0.5;" x1="1418" x2="1742" y1="507.83" y2="507.83"/><line style="stroke:#1B1B1B;stroke-width:0.5;" x1="1418" x2="1742" y1="515.83" y2="515.83"/><ellipse cx="1428" cy="527.2323" fill="#84BE84" rx="3" ry="3" style="stroke:#038048;stroke-width:1.0;"/><text fill="#AAAAAA" font-family="sans-serif" font-size="11" lengthAdjust="spacing" textLength="303" x="1434" y="530.0404">capture_links(url: str, depth: usize, results: HashSet)</text></g><!--class Storage--><g id="elem_Storage"><rect codeLine="47" fill="#2E2E2E" height="80.4141" id="Storage" rx="2.5" ry="2.5" style="stroke:#1B1B1B;stroke-width:0.5;" width="169" x="2017.5" y="198.8"/><ellipse cx="2076" cy="211.8" fill="#2E5233" rx="8" ry="8" style="stroke:#E7E7E7;stroke-width:1.0;"/><path d="M2078.125,215.3625 Q2077.5469,215.6594 2076.9219,215.8 Q2076.3125,215.9563 2075.6406,215.9563 Q2073.6406,215.9563 2072.4688,214.8469 Q2071.2969,213.7219 2071.2969,211.8 Q2071.2969,209.8781 2072.4688,208.7531 Q2073.6406,207.6281 2075.6406,207.6281 Q2076.3125,207.6281 2076.9219,207.7844 Q2077.5469,207.9406 2078.125,208.2375 L2078.125,209.8938 Q2077.5469,209.5031 2076.9844,209.3156 Q2076.4219,209.1281 2075.8125,209.1281 Q2074.7031,209.1281 2074.0625,209.8469 Q2073.4375,210.55 2073.4375,211.8 Q2073.4375,213.0344 2074.0625,213.7531 Q2074.7031,214.4563 2075.8125,214.4563 Q2076.4219,214.4563 2076.9844,214.2844 Q2077.5469,214.0969 2078.125,213.7063 L2078.125,215.3625 Z " fill="#FFFFFF"/><text fill="#AAAAAA" font-family="Verdana" font-size="11" lengthAdjust="spacing" textLength="45" x="2092" y="215.6081">Storage</text><line style="stroke:#1B1B1B;stroke-width:0.5;" x1="2018.5" x2="2185.5" y1="224.8" y2="224.8"/><ellipse cx="2028.5" cy="236.2023" fill="none" rx="3" ry="3" style="stroke:#038048;stroke-width:1.0;"/><text fill="#AAAAAA" font-family="sans-serif" font-size="11" lengthAdjust="spacing" textLength="54" x="2034.5" y="239.0104">csv : CSV</text><ellipse cx="2028.5" cy="249.007" fill="none" rx="3" ry="3" style="stroke:#038048;stroke-width:1.0;"/><text fill="#AAAAAA" font-family="sans-serif" font-size="11" lengthAdjust="spacing" textLength="64" x="2034.5" y="251.8151">json : JSON</text><ellipse cx="2028.5" cy="261.8117" fill="none" rx="3" ry="3" style="stroke:#038048;stroke-width:1.0;"/><text fill="#AAAAAA" font-family="sans-serif" font-size="11" lengthAdjust="spacing" textLength="146" x="2034.5" y="264.6198">persistence : Persistence</text><line style="stroke:#1B1B1B;stroke-width:0.5;" x1="2018.5" x2="2185.5" y1="271.2141" y2="271.2141"/></g><!--class CSV--><g id="elem_CSV"><rect codeLine="53" fill="#2E2E2E" height="54.8047" id="CSV" rx="2.5" ry="2.5" style="stroke:#1B1B1B;stroke-width:0.5;" width="260" x="1823" y="354.22"/><ellipse cx="1938" cy="367.22" fill="#2E5233" rx="8" ry="8" style="stroke:#E7E7E7;stroke-width:1.0;"/><path d="M1940.125,370.7825 Q1939.5469,371.0794 1938.9219,371.22 Q1938.3125,371.3762 1937.6406,371.3762 Q1935.6406,371.3762 1934.4688,370.2669 Q1933.2969,369.1419 1933.2969,367.22 Q1933.2969,365.2981 1934.4688,364.1731 Q1935.6406,363.0481 1937.6406,363.0481 Q1938.3125,363.0481 1938.9219,363.2044 Q1939.5469,363.3606 1940.125,363.6575 L1940.125,365.3137 Q1939.5469,364.9231 1938.9844,364.7356 Q1938.4219,364.5481 1937.8125,364.5481 Q1936.7031,364.5481 1936.0625,365.2669 Q1935.4375,365.97 1935.4375,367.22 Q1935.4375,368.4544 1936.0625,369.1731 Q1936.7031,369.8762 1937.8125,369.8762 Q1938.4219,369.8762 1938.9844,369.7044 Q1939.5469,369.5169 1940.125,369.1262 L1940.125,370.7825 Z " fill="#FFFFFF"/><text fill="#AAAAAA" font-family="Verdana" font-size="11" lengthAdjust="spacing" textLength="23" x="1954" y="371.0281">CSV</text><line style="stroke:#1B1B1B;stroke-width:0.5;" x1="1824" x2="2082" y1="380.22" y2="380.22"/><line style="stroke:#1B1B1B;stroke-width:0.5;" x1="1824" x2="2082" y1="388.22" y2="388.22"/><ellipse cx="1834" cy="399.6223" fill="#84BE84" rx="3" ry="3" style="stroke:#038048;stroke-width:1.0;"/><text fill="#AAAAAA" font-family="sans-serif" font-size="11" lengthAdjust="spacing" textLength="237" x="1840" y="402.4304">save_as_csv(resultados: Vec, output: str)</text></g><!--class JSON--><g id="elem_JSON"><rect codeLine="57" fill="#2E2E2E" height="54.8047" id="JSON" rx="2.5" ry="2.5" style="stroke:#1B1B1B;stroke-width:0.5;" width="265" x="2118.5" y="354.22"/><ellipse cx="2233.5" cy="367.22" fill="#2E5233" rx="8" ry="8" style="stroke:#E7E7E7;stroke-width:1.0;"/><path d="M2235.625,370.7825 Q2235.0469,371.0794 2234.4219,371.22 Q2233.8125,371.3762 2233.1406,371.3762 Q2231.1406,371.3762 2229.9688,370.2669 Q2228.7969,369.1419 2228.7969,367.22 Q2228.7969,365.2981 2229.9688,364.1731 Q2231.1406,363.0481 2233.1406,363.0481 Q2233.8125,363.0481 2234.4219,363.2044 Q2235.0469,363.3606 2235.625,363.6575 L2235.625,365.3137 Q2235.0469,364.9231 2234.4844,364.7356 Q2233.9219,364.5481 2233.3125,364.5481 Q2232.2031,364.5481 2231.5625,365.2669 Q2230.9375,365.97 2230.9375,367.22 Q2230.9375,368.4544 2231.5625,369.1731 Q2232.2031,369.8762 2233.3125,369.8762 Q2233.9219,369.8762 2234.4844,369.7044 Q2235.0469,369.5169 2235.625,369.1262 L2235.625,370.7825 Z " fill="#FFFFFF"/><text fill="#AAAAAA" font-family="Verdana" font-size="11" lengthAdjust="spacing" textLength="28" x="2249.5" y="371.0281">JSON</text><line style="stroke:#1B1B1B;stroke-width:0.5;" x1="2119.5" x2="2382.5" y1="380.22" y2="380.22"/><line style="stroke:#1B1B1B;stroke-width:0.5;" x1="2119.5" x2="2382.5" y1="388.22" y2="388.22"/><ellipse cx="2129.5" cy="399.6223" fill="#84BE84" rx="3" ry="3" style="stroke:#038048;stroke-width:1.0;"/><text fill="#AAAAAA" font-family="sans-serif" font-size="11" lengthAdjust="spacing" textLength="242" x="2135.5" y="402.4304">save_as_json(resultados: Vec, output: str)</text></g><!--class Persistence--><g id="elem_Persistence"><rect codeLine="61" fill="#2E2E2E" height="54.8047" id="Persistence" rx="2.5" ry="2.5" style="stroke:#1B1B1B;stroke-width:0.5;" width="395" x="2418.5" y="354.22"/><ellipse cx="2579" cy="367.22" fill="#2E5233" rx="8" ry="8" style="stroke:#E7E7E7;stroke-width:1.0;"/><path d="M2581.125,370.7825 Q2580.5469,371.0794 2579.9219,371.22 Q2579.3125,371.3762 2578.6406,371.3762 Q2576.6406,371.3762 2575.4688,370.2669 Q2574.2969,369.1419 2574.2969,367.22 Q2574.2969,365.2981 2575.4688,364.1731 Q2576.6406,363.0481 2578.6406,363.0481 Q2579.3125,363.0481 2579.9219,363.2044 Q2580.5469,363.3606 2581.125,363.6575 L2581.125,365.3137 Q2580.5469,364.9231 2579.9844,364.7356 Q2579.4219,364.5481 2578.8125,364.5481 Q2577.7031,364.5481 2577.0625,365.2669 Q2576.4375,365.97 2576.4375,367.22 Q2576.4375,368.4544 2577.0625,369.1731 Q2577.7031,369.8762 2578.8125,369.8762 Q2579.4219,369.8762 2579.9844,369.7044 Q2580.5469,369.5169 2581.125,369.1262 L2581.125,370.7825 Z " fill="#FFFFFF"/><text fill="#AAAAAA" font-family="Verdana" font-size="11" lengthAdjust="spacing" textLength="67" x="2595" y="371.0281">Persistence</text><line style="stroke:#1B1B1B;stroke-width:0.5;" x1="2419.5" x2="2812.5" y1="380.22" y2="380.22"/><line style="stroke:#1B1B1B;stroke-width:0.5;" x1="2419.5" x2="2812.5" y1="388.22" y2="388.22"/><ellipse cx="2429.5" cy="399.6223" fill="#84BE84" rx="3" ry="3" style="stroke:#038048;stroke-width:1.0;"/><text fill="#AAAAAA" font-family="sans-serif" font-size="11" lengthAdjust="spacing" textLength="372" x="2435.5" y="402.4304">salvar_resultados(resultados: HashSet, formato: str, output: str)</text></g><!--class IntegrationTests--><g id="elem_IntegrationTests"><rect codeLine="67" fill="#2E2E2E" height="54.8047" id="IntegrationTests" rx="2.5" ry="2.5" style="stroke:#1B1B1B;stroke-width:0.5;" width="120" x="46" y="84"/><ellipse cx="58.45" cy="97" fill="#2E5233" rx="8" ry="8" style="stroke:#E7E7E7;stroke-width:1.0;"/><path d="M60.575,100.5625 Q59.9969,100.8594 59.3719,101 Q58.7625,101.1563 58.0906,101.1563 Q56.0906,101.1563 54.9188,100.0469 Q53.7469,98.9219 53.7469,97 Q53.7469,95.0781 54.9188,93.9531 Q56.0906,92.8281 58.0906,92.8281 Q58.7625,92.8281 59.3719,92.9844 Q59.9969,93.1406 60.575,93.4375 L60.575,95.0938 Q59.9969,94.7031 59.4344,94.5156 Q58.8719,94.3281 58.2625,94.3281 Q57.1531,94.3281 56.5125,95.0469 Q55.8875,95.75 55.8875,97 Q55.8875,98.2344 56.5125,98.9531 Q57.1531,99.6563 58.2625,99.6563 Q58.8719,99.6563 59.4344,99.4844 Q59.9969,99.2969 60.575,98.9063 L60.575,100.5625 Z " fill="#FFFFFF"/><text fill="#AAAAAA" font-family="Verdana" font-size="11" lengthAdjust="spacing" textLength="93" x="69.55" y="100.8081">IntegrationTests</text><line style="stroke:#1B1B1B;stroke-width:0.5;" x1="47" x2="165" y1="110" y2="110"/><line style="stroke:#1B1B1B;stroke-width:0.5;" x1="47" x2="165" y1="118" y2="118"/><ellipse cx="57" cy="129.4023" fill="#84BE84" rx="3" ry="3" style="stroke:#038048;stroke-width:1.0;"/><text fill="#AAAAAA" font-family="sans-serif" font-size="11" lengthAdjust="spacing" textLength="97" x="63" y="132.2104">test_integration()</text></g><!--class NavigatorTests--><g id="elem_NavigatorTests"><rect codeLine="71" fill="#2E2E2E" height="54.8047" id="NavigatorTests" rx="2.5" ry="2.5" style="stroke:#1B1B1B;stroke-width:0.5;" width="112" x="201" y="84"/><ellipse cx="213" cy="97" fill="#2E5233" rx="8" ry="8" style="stroke:#E7E7E7;stroke-width:1.0;"/><path d="M215.125,100.5625 Q214.5469,100.8594 213.9219,101 Q213.3125,101.1563 212.6406,101.1563 Q210.6406,101.1563 209.4688,100.0469 Q208.2969,98.9219 208.2969,97 Q208.2969,95.0781 209.4688,93.9531 Q210.6406,92.8281 212.6406,92.8281 Q213.3125,92.8281 213.9219,92.9844 Q214.5469,93.1406 215.125,93.4375 L215.125,95.0938 Q214.5469,94.7031 213.9844,94.5156 Q213.4219,94.3281 212.8125,94.3281 Q211.7031,94.3281 211.0625,95.0469 Q210.4375,95.75 210.4375,97 Q210.4375,98.2344 211.0625,98.9531 Q211.7031,99.6563 212.8125,99.6563 Q213.4219,99.6563 213.9844,99.4844 Q214.5469,99.2969 215.125,98.9063 L215.125,100.5625 Z " fill="#FFFFFF"/><text fill="#AAAAAA" font-family="Verdana" font-size="11" lengthAdjust="spacing" textLength="86" x="224" y="100.8081">NavigatorTests</text><line style="stroke:#1B1B1B;stroke-width:0.5;" x1="202" x2="312" y1="110" y2="110"/><line style="stroke:#1B1B1B;stroke-width:0.5;" x1="202" x2="312" y1="118" y2="118"/><ellipse cx="212" cy="129.4023" fill="#84BE84" rx="3" ry="3" style="stroke:#038048;stroke-width:1.0;"/><text fill="#AAAAAA" font-family="sans-serif" font-size="11" lengthAdjust="spacing" textLength="89" x="218" y="132.2104">test_navigator()</text></g><!--class ParserTests--><g id="elem_ParserTests"><rect codeLine="75" fill="#2E2E2E" height="54.8047" id="ParserTests" rx="2.5" ry="2.5" style="stroke:#1B1B1B;stroke-width:0.5;" width="97" x="57.5" y="211.61"/><ellipse cx="69.95" cy="224.61" fill="#2E5233" rx="8" ry="8" style="stroke:#E7E7E7;stroke-width:1.0;"/><path d="M72.075,228.1725 Q71.4969,228.4694 70.8719,228.61 Q70.2625,228.7663 69.5906,228.7663 Q67.5906,228.7663 66.4188,227.6569 Q65.2469,226.5319 65.2469,224.61 Q65.2469,222.6881 66.4188,221.5631 Q67.5906,220.4381 69.5906,220.4381 Q70.2625,220.4381 70.8719,220.5944 Q71.4969,220.7506 72.075,221.0475 L72.075,222.7038 Q71.4969,222.3131 70.9344,222.1256 Q70.3719,221.9381 69.7625,221.9381 Q68.6531,221.9381 68.0125,222.6569 Q67.3875,223.36 67.3875,224.61 Q67.3875,225.8444 68.0125,226.5631 Q68.6531,227.2663 69.7625,227.2663 Q70.3719,227.2663 70.9344,227.0944 Q71.4969,226.9069 72.075,226.5163 L72.075,228.1725 Z " fill="#FFFFFF"/><text fill="#AAAAAA" font-family="Verdana" font-size="11" lengthAdjust="spacing" textLength="70" x="81.05" y="228.4181">ParserTests</text><line style="stroke:#1B1B1B;stroke-width:0.5;" x1="58.5" x2="153.5" y1="237.61" y2="237.61"/><line style="stroke:#1B1B1B;stroke-width:0.5;" x1="58.5" x2="153.5" y1="245.61" y2="245.61"/><ellipse cx="68.5" cy="257.0123" fill="#84BE84" rx="3" ry="3" style="stroke:#038048;stroke-width:1.0;"/><text fill="#AAAAAA" font-family="sans-serif" font-size="11" lengthAdjust="spacing" textLength="74" x="74.5" y="259.8204">test_parser()</text></g><!--link main to CLI--><g id="link_main_CLI"><path codeLine="80" d="M881.13,113.42 C801.21,116.51 584.1,127.37 519,155.8 C490.42,168.29 468.2116,188.0815 450.5716,207.0015 " fill="none" id="main-to-CLI" style="stroke:#FFFFFF;stroke-width:1.0;"/><polygon fill="#FFFFFF" points="446.48,211.39,455.5431,207.535,449.8897,207.7329,449.6917,202.0795,446.48,211.39" style="stroke:#FFFFFF;stroke-width:1.0;"/></g><!--link main to Scraper--><g id="link_main_Scraper"><path codeLine="81" d="M911,139.04 C911,156.32 911,173.15 911,192.52 " fill="none" id="main-to-Scraper" style="stroke:#FFFFFF;stroke-width:1.0;"/><polygon fill="#FFFFFF" points="911,198.52,915,189.52,911,193.52,907,189.52,911,198.52" style="stroke:#FFFFFF;stroke-width:1.0;"/></g><!--link main to Storage--><g id="link_main_Storage"><path codeLine="82" d="M940.6,113.07 C1073.42,116.19 1615.17,130.27 1783,155.8 C1863.71,168.08 1947.8491,190.5191 2011.5791,209.4791 " fill="none" id="main-to-Storage" style="stroke:#FFFFFF;stroke-width:1.0;"/><polygon fill="#FFFFFF" points="2017.33,211.19,2009.8443,204.7897,2012.5376,209.7642,2007.563,212.4575,2017.33,211.19" style="stroke:#FFFFFF;stroke-width:1.0;"/></g><!--link Scraper to Navigator--><g id="link_Scraper_Navigator"><path codeLine="84" d="M982.12,272.27 C1027.17,292.7 1080.2757,316.7918 1128.1457,338.5018 " fill="none" id="Scraper-to-Navigator" style="stroke:#FFFFFF;stroke-width:1.0;"/><polygon fill="#FFFFFF" points="1133.61,340.98,1127.0657,333.6199,1129.0564,338.9149,1123.7614,340.9056,1133.61,340.98" style="stroke:#FFFFFF;stroke-width:1.0;"/></g><!--link Scraper to Fetcher--><g id="link_Scraper_Fetcher"><path codeLine="85" d="M839.52,275.83 C825.35,283.16 810.64,290.92 797,298.41 C764.51,316.25 733.6073,334.3769 706.2273,350.7769 " fill="none" id="Scraper-to-Fetcher" style="stroke:#FFFFFF;stroke-width:1.0;"/><polygon fill="#FFFFFF" points="701.08,353.86,710.8563,352.6669,705.3694,351.2907,706.7455,345.8038,701.08,353.86" style="stroke:#FFFFFF;stroke-width:1.0;"/></g><!--link Scraper to Parser--><g id="link_Scraper_Parser"><path codeLine="86" d="M911,279.55 C911,300.99 911,321.2 911,341.55 " fill="none" id="Scraper-to-Parser" style="stroke:#FFFFFF;stroke-width:1.0;"/><polygon fill="#FFFFFF" points="911,347.55,915,338.55,911,342.55,907,338.55,911,347.55" style="stroke:#FFFFFF;stroke-width:1.0;"/></g><!--link Navigator to Images--><g id="link_Navigator_Images"><path codeLine="88" d="M1217.86,422.02 C1216.32,441.44 1214.9668,458.379 1213.5868,475.689 " fill="none" id="Navigator-to-Images" style="stroke:#FFFFFF;stroke-width:1.0;"/><polygon fill="#FFFFFF" points="1213.11,481.67,1217.8126,473.0163,1213.5074,476.6858,1209.8379,472.3806,1213.11,481.67" style="stroke:#FFFFFF;stroke-width:1.0;"/></g><!--link Navigator to Links--><g id="link_Navigator_Links"><path codeLine="89" d="M1334.1,422.19 C1389.18,441.46 1448.3066,462.1487 1497.5566,479.3787 " fill="none" id="Navigator-to-Links" style="stroke:#FFFFFF;stroke-width:1.0;"/><polygon fill="#FFFFFF" points="1503.22,481.36,1496.0458,474.6124,1498.5005,479.7089,1493.404,482.1636,1503.22,481.36" style="stroke:#FFFFFF;stroke-width:1.0;"/></g><!--link Storage to CSV--><g id="link_Storage_CSV"><path codeLine="91" d="M2060.1,279.55 C2034.96,303.27 2008.0234,328.6917 1985.7734,349.6917 " fill="none" id="Storage-to-CSV" style="stroke:#FFFFFF;stroke-width:1.0;"/><polygon fill="#FFFFFF" points="1981.41,353.81,1990.7007,350.5415,1985.0462,350.3781,1985.2096,344.7236,1981.41,353.81" style="stroke:#FFFFFF;stroke-width:1.0;"/></g><!--link Storage to JSON--><g id="link_Storage_JSON"><path codeLine="92" d="M2143.9,279.55 C2169.04,303.27 2195.9766,328.6917 2218.2266,349.6917 " fill="none" id="Storage-to-JSON" style="stroke:#FFFFFF;stroke-width:1.0;"/><polygon fill="#FFFFFF" points="2222.59,353.81,2218.7904,344.7236,2218.9538,350.3781,2213.2993,350.5415,2222.59,353.81" style="stroke:#FFFFFF;stroke-width:1.0;"/></g><!--link Storage to Persistence--><g id="link_Storage_Persistence"><path codeLine="93" d="M2186.69,252.55 C2247.07,262.46 2329.82,278.02 2401,298.41 C2453.82,313.55 2506.3903,333.8352 2548.8603,351.5052 " fill="none" id="Storage-to-Persistence" style="stroke:#FFFFFF;stroke-width:1.0;"/><polygon fill="#FFFFFF" points="2554.4,353.81,2547.6271,346.6597,2549.7836,351.8893,2544.554,354.0459,2554.4,353.81" style="stroke:#FFFFFF;stroke-width:1.0;"/></g><!--SRC=[dLLDZvim4BtdLxWv4JNv0nmgLP6gPhNQLfjgUqHUc0rkm22FoQ5L_dlz5MCCpY5SRCyCxxt1CyCdMKCBH41L2K3SLLISJmA0htfQdka9oFgLeXH0gqxyXlSr-RSYwYaRYaXQohWpwEUpFcSRSxwkpE9HoeQjWr3x_lxv4DWCnFl0cgfGqTc6vEHhttltTH4NIq5x47FietN4-9nUs8dAJYZqbzj-6l81ign11topkwcxfmADzwVP1FhyrglpREj8XzNe1KHUmyDQ1O6Avs0syu26yRFsF-jrxdRSa0sYoOcwmosfe9TrJWPaVs5BFbWZGJYNklsXaPYJxnJh8yZD1338RLHlTIr9Bsal1m65JI4fu05Ea-izIlDH7cPSuBQyhXBYQZAbKYYsJ5KiS9cJlLctvAP0L_6hOKs3sqAAiKsTkNngsOvmRr0kHRgFdGnDz8-gFhLPw1_hY5MLU56u- -FRrFm7EwxiJySVBv4s4CXG0Yz1jynuIdyE1Hwp8hr0GR5Gx9czGpMFqEIt9TqW-q7QdDEeMbeALgj_53T8QGxVNAWeHk09Xoj1rOUTQDKGS0MRO5swEmaeSNvp1oxX9AXa7V-b8s9P-hM2ZK7PdUpyX4eZ-Hbt3yUMU1h43jKiaR7vp-nsN_GFOsfmKpuosjArxzx-0zen7VYX9vpqeTtDU6CVfxNs15Dvwh3Zs2Av7ZBINSk4DjykeJ7iaTNrFm00]--></g></svg>